<mxfile host="drawio-plugin" modified="2022-05-15T11:44:28.274Z" agent="5.0 (Macintosh; Intel Mac OS X 11_2_2) AppleWebKit/537.36 (KHTML, like Gecko) Chrome/89.0.4389.114 Safari/537.36" etag="Uf2K4_JOxipu_07sUVli" version="15.5.4" type="embed"><diagram id="onVSaOAGexIS0x_OZYuM" name="Page-1"><mxGraphModel dx="430" dy="279" grid="1" gridSize="10" guides="1" tooltips="1" connect="1" arrows="1" fold="1" page="1" pageScale="1" pageWidth="1169" pageHeight="1654" math="0" shadow="0"><root><mxCell id="0"/><mxCell id="1" parent="0"/><mxCell id="5qQmAU-Xj-Boq_nQjETH-93" value="" style="rounded=0;whiteSpace=wrap;html=1;dashed=1;fontSize=18;fillColor=none;fontColor=#000000;" parent="1" vertex="1"><mxGeometry x="1150" y="110" width="950" height="660" as="geometry"/></mxCell><mxCell id="5qQmAU-Xj-Boq_nQjETH-77" value="" style="rounded=0;whiteSpace=wrap;html=1;dashed=1;fontSize=18;fillColor=none;fontColor=#000000;" parent="1" vertex="1"><mxGeometry x="215" y="720" width="430" height="390" as="geometry"/></mxCell><mxCell id="5qQmAU-Xj-Boq_nQjETH-76" value="" style="rounded=0;whiteSpace=wrap;html=1;fontSize=18;fillColor=none;dashed=1;fontColor=#000000;" parent="1" vertex="1"><mxGeometry x="210" y="110" width="880" height="580" as="geometry"/></mxCell><mxCell id="5qQmAU-Xj-Boq_nQjETH-20" value="Event" style="rounded=1;whiteSpace=wrap;html=1;fillColor=#EDA65F;fontColor=#000000;" parent="1" vertex="1"><mxGeometry x="30" y="110" width="120" height="60" as="geometry"/></mxCell><mxCell id="5qQmAU-Xj-Boq_nQjETH-21" value="Легенда" style="text;html=1;strokeColor=none;fillColor=none;align=center;verticalAlign=middle;whiteSpace=wrap;rounded=0;fontSize=18;fontColor=#000000;" parent="1" vertex="1"><mxGeometry x="40" y="20" width="110" height="30" as="geometry"/></mxCell><mxCell id="5qQmAU-Xj-Boq_nQjETH-22" value="Command" style="rounded=1;whiteSpace=wrap;html=1;fillColor=#99CCFF;fontColor=#000000;" parent="1" vertex="1"><mxGeometry x="30" y="200" width="120" height="60" as="geometry"/></mxCell><mxCell id="5qQmAU-Xj-Boq_nQjETH-23" value="Client" style="rounded=1;whiteSpace=wrap;html=1;fillColor=#FFF2CC;fontColor=#000000;" parent="1" vertex="1"><mxGeometry x="30" y="290" width="120" height="60" as="geometry"/></mxCell><mxCell id="5qQmAU-Xj-Boq_nQjETH-24" value="External System" style="rounded=1;whiteSpace=wrap;html=1;fillColor=#FF9999;fontColor=#000000;" parent="1" vertex="1"><mxGeometry x="30" y="387" width="120" height="60" as="geometry"/></mxCell><mxCell id="5qQmAU-Xj-Boq_nQjETH-25" value="Policy" style="rounded=1;whiteSpace=wrap;html=1;fillColor=#CC99FF;fontColor=#000000;" parent="1" vertex="1"><mxGeometry x="30" y="480" width="120" height="60" as="geometry"/></mxCell><mxCell id="5qQmAU-Xj-Boq_nQjETH-26" value="Read Model" style="rounded=1;whiteSpace=wrap;html=1;fillColor=#D5E8D4;fontColor=#000000;" parent="1" vertex="1"><mxGeometry x="30" y="570" width="120" height="60" as="geometry"/></mxCell><mxCell id="5qQmAU-Xj-Boq_nQjETH-27" value="Agregate" style="rounded=1;whiteSpace=wrap;html=1;fillColor=#FFD966;fontColor=#000000;" parent="1" vertex="1"><mxGeometry x="30" y="660" width="120" height="60" as="geometry"/></mxCell><mxCell id="5qQmAU-Xj-Boq_nQjETH-28" value="" style="endArrow=none;html=1;rounded=0;fontSize=18;strokeWidth=2;curved=1;fontColor=#000000;" parent="1" edge="1"><mxGeometry width="50" height="50" relative="1" as="geometry"><mxPoint x="190" y="30" as="sourcePoint"/><mxPoint x="190" y="760" as="targetPoint"/></mxGeometry></mxCell><mxCell id="5qQmAU-Xj-Boq_nQjETH-29" value="Зарегистрирован новый пользователь&lt;br&gt;Account.Registered" style="rounded=1;whiteSpace=wrap;html=1;fillColor=#EDA65F;fontColor=#000000;" parent="1" vertex="1"><mxGeometry x="495" y="770" width="120" height="60" as="geometry"/></mxCell><mxCell id="5qQmAU-Xj-Boq_nQjETH-30" value="Пользователю назначена роль&lt;br&gt;Account.Role.Changed" style="rounded=1;whiteSpace=wrap;html=1;fillColor=#EDA65F;fontColor=#000000;" parent="1" vertex="1"><mxGeometry x="495" y="962" width="120" height="60" as="geometry"/></mxCell><mxCell id="5qQmAU-Xj-Boq_nQjETH-31" value="Добавлен новый Таск&lt;br&gt;Task.Added" style="rounded=1;whiteSpace=wrap;html=1;fillColor=#EDA65F;fontColor=#000000;" parent="1" vertex="1"><mxGeometry x="500" y="170" width="120" height="60" as="geometry"/></mxCell><mxCell id="5qQmAU-Xj-Boq_nQjETH-39" value="Таск завершен&lt;br&gt;Task.Completed" style="rounded=1;whiteSpace=wrap;html=1;fillColor=#EDA65F;fontColor=#000000;" parent="1" vertex="1"><mxGeometry x="500" y="540" width="120" height="60" as="geometry"/></mxCell><mxCell id="5qQmAU-Xj-Boq_nQjETH-46" value="&lt;meta charset=&quot;utf-8&quot;&gt;&lt;span style=&quot;font-family: helvetica; font-size: 18px; font-style: normal; font-weight: 400; letter-spacing: normal; text-align: center; text-indent: 0px; text-transform: none; word-spacing: 0px; background-color: rgb(248, 249, 250); display: inline; float: none;&quot;&gt;Схема основных действий со стороны Бизнеса&lt;/span&gt;" style="text;whiteSpace=wrap;html=1;fontSize=18;fontColor=#000000;" parent="1" vertex="1"><mxGeometry x="230" y="15" width="430" height="40" as="geometry"/></mxCell><mxCell id="5qQmAU-Xj-Boq_nQjETH-56" style="edgeStyle=orthogonalEdgeStyle;curved=1;rounded=0;orthogonalLoop=1;jettySize=auto;html=1;exitX=1;exitY=0.5;exitDx=0;exitDy=0;entryX=0;entryY=0.5;entryDx=0;entryDy=0;fontSize=18;startArrow=none;startFill=0;endArrow=classic;endFill=1;strokeWidth=2;fontColor=#000000;" parent="1" source="5qQmAU-Xj-Boq_nQjETH-31" target="5qQmAU-Xj-Boq_nQjETH-52" edge="1"><mxGeometry relative="1" as="geometry"><Array as="points"><mxPoint x="700" y="200"/><mxPoint x="700" y="320"/></Array></mxGeometry></mxCell><mxCell id="5qQmAU-Xj-Boq_nQjETH-48" value="AddTask" style="rounded=1;whiteSpace=wrap;html=1;fillColor=#99CCFF;fontColor=#000000;" parent="1" vertex="1"><mxGeometry x="370" y="170" width="120" height="60" as="geometry"/></mxCell><mxCell id="5qQmAU-Xj-Boq_nQjETH-49" value="User" style="rounded=1;whiteSpace=wrap;html=1;fillColor=#FFF2CC;fontColor=#000000;" parent="1" vertex="1"><mxGeometry x="240" y="210" width="120" height="60" as="geometry"/></mxCell><mxCell id="5qQmAU-Xj-Boq_nQjETH-50" value="Task" style="rounded=1;whiteSpace=wrap;html=1;fillColor=#FFD966;fontColor=#000000;" parent="1" vertex="1"><mxGeometry x="370" y="240" width="120" height="60" as="geometry"/></mxCell><mxCell id="5qQmAU-Xj-Boq_nQjETH-96" style="edgeStyle=orthogonalEdgeStyle;curved=1;rounded=0;orthogonalLoop=1;jettySize=auto;html=1;exitX=1;exitY=0.5;exitDx=0;exitDy=0;entryX=0;entryY=0.5;entryDx=0;entryDy=0;fontSize=18;startArrow=none;startFill=0;endArrow=classic;endFill=1;strokeWidth=2;fontColor=#000000;" parent="1" source="5qQmAU-Xj-Boq_nQjETH-57" target="5qQmAU-Xj-Boq_nQjETH-83" edge="1"><mxGeometry relative="1" as="geometry"/></mxCell><mxCell id="5qQmAU-Xj-Boq_nQjETH-52" value="AssignTask" style="rounded=1;whiteSpace=wrap;html=1;fillColor=#99CCFF;fontColor=#000000;" parent="1" vertex="1"><mxGeometry x="810" y="290" width="120" height="60" as="geometry"/></mxCell><mxCell id="5qQmAU-Xj-Boq_nQjETH-53" value="System" style="rounded=1;whiteSpace=wrap;html=1;fillColor=#FFF2CC;fontColor=#000000;" parent="1" vertex="1"><mxGeometry x="680" y="340" width="120" height="60" as="geometry"/></mxCell><mxCell id="5qQmAU-Xj-Boq_nQjETH-54" value="UserID, Task" style="rounded=1;whiteSpace=wrap;html=1;fillColor=#FFD966;fontColor=#000000;" parent="1" vertex="1"><mxGeometry x="810" y="360" width="120" height="60" as="geometry"/></mxCell><mxCell id="5qQmAU-Xj-Boq_nQjETH-57" value="Таск назначен пользователю&lt;br&gt;Tasks.Assigned" style="rounded=1;whiteSpace=wrap;html=1;fillColor=#EDA65F;fontColor=#000000;" parent="1" vertex="1"><mxGeometry x="940" y="290" width="120" height="60" as="geometry"/></mxCell><mxCell id="5qQmAU-Xj-Boq_nQjETH-59" value="ShuffleTasks" style="rounded=1;whiteSpace=wrap;html=1;fillColor=#99CCFF;fontColor=#000000;" parent="1" vertex="1"><mxGeometry x="370" y="377" width="120" height="60" as="geometry"/></mxCell><mxCell id="5qQmAU-Xj-Boq_nQjETH-60" value="User" style="rounded=1;whiteSpace=wrap;html=1;fillColor=#FFF2CC;fontColor=#000000;" parent="1" vertex="1"><mxGeometry x="240" y="417" width="120" height="60" as="geometry"/></mxCell><mxCell id="5qQmAU-Xj-Boq_nQjETH-61" value="Task" style="rounded=1;whiteSpace=wrap;html=1;fillColor=#FFD966;fontColor=#000000;" parent="1" vertex="1"><mxGeometry x="370" y="447" width="120" height="60" as="geometry"/></mxCell><mxCell id="2" style="edgeStyle=orthogonalEdgeStyle;rounded=0;orthogonalLoop=1;jettySize=auto;html=1;exitX=1;exitY=0.5;exitDx=0;exitDy=0;entryX=0;entryY=0.5;entryDx=0;entryDy=0;fontColor=#000000;curved=1;strokeWidth=2;" edge="1" parent="1" source="5qQmAU-Xj-Boq_nQjETH-63" target="5qQmAU-Xj-Boq_nQjETH-83"><mxGeometry relative="1" as="geometry"><Array as="points"><mxPoint x="620" y="440"/><mxPoint x="960" y="440"/><mxPoint x="960" y="420"/></Array></mxGeometry></mxCell><mxCell id="5qQmAU-Xj-Boq_nQjETH-63" value="Таски перемешаны&lt;br&gt;Tasks.Shuffled" style="rounded=1;whiteSpace=wrap;html=1;fillColor=#EDA65F;fontColor=#000000;" parent="1" vertex="1"><mxGeometry x="500" y="377" width="120" height="60" as="geometry"/></mxCell><mxCell id="5qQmAU-Xj-Boq_nQjETH-95" style="edgeStyle=orthogonalEdgeStyle;curved=1;rounded=0;orthogonalLoop=1;jettySize=auto;html=1;exitX=1;exitY=0.5;exitDx=0;exitDy=0;fontSize=18;startArrow=none;startFill=0;endArrow=classic;endFill=1;strokeWidth=2;fontColor=#000000;" parent="1" source="5qQmAU-Xj-Boq_nQjETH-39" target="5qQmAU-Xj-Boq_nQjETH-101" edge="1"><mxGeometry relative="1" as="geometry"><Array as="points"><mxPoint x="990" y="570"/><mxPoint x="990" y="610"/></Array></mxGeometry></mxCell><mxCell id="5qQmAU-Xj-Boq_nQjETH-65" value="CompleteTask" style="rounded=1;whiteSpace=wrap;html=1;fillColor=#99CCFF;fontColor=#000000;" parent="1" vertex="1"><mxGeometry x="370" y="540" width="120" height="60" as="geometry"/></mxCell><mxCell id="5qQmAU-Xj-Boq_nQjETH-66" value="User" style="rounded=1;whiteSpace=wrap;html=1;fillColor=#FFF2CC;fontColor=#000000;" parent="1" vertex="1"><mxGeometry x="240" y="580" width="120" height="60" as="geometry"/></mxCell><mxCell id="5qQmAU-Xj-Boq_nQjETH-67" value="AccountID, Task" style="rounded=1;whiteSpace=wrap;html=1;fillColor=#FFD966;fontColor=#000000;" parent="1" vertex="1"><mxGeometry x="370" y="610" width="120" height="60" as="geometry"/></mxCell><mxCell id="5qQmAU-Xj-Boq_nQjETH-69" value="Register Account" style="rounded=1;whiteSpace=wrap;html=1;fillColor=#99CCFF;fontColor=#000000;" parent="1" vertex="1"><mxGeometry x="365" y="770" width="120" height="60" as="geometry"/></mxCell><mxCell id="5qQmAU-Xj-Boq_nQjETH-70" value="AdminUser" style="rounded=1;whiteSpace=wrap;html=1;fillColor=#FFF2CC;fontColor=#000000;" parent="1" vertex="1"><mxGeometry x="235" y="810" width="120" height="60" as="geometry"/></mxCell><mxCell id="5qQmAU-Xj-Boq_nQjETH-71" value="Account" style="rounded=1;whiteSpace=wrap;html=1;fillColor=#FFD966;fontColor=#000000;" parent="1" vertex="1"><mxGeometry x="365" y="840" width="120" height="60" as="geometry"/></mxCell><mxCell id="5qQmAU-Xj-Boq_nQjETH-73" value="Change Account Role" style="rounded=1;whiteSpace=wrap;html=1;fillColor=#99CCFF;fontColor=#000000;" parent="1" vertex="1"><mxGeometry x="365" y="962" width="120" height="60" as="geometry"/></mxCell><mxCell id="5qQmAU-Xj-Boq_nQjETH-74" value="AdminUser" style="rounded=1;whiteSpace=wrap;html=1;fillColor=#FFF2CC;fontColor=#000000;" parent="1" vertex="1"><mxGeometry x="235" y="1002" width="120" height="60" as="geometry"/></mxCell><mxCell id="5qQmAU-Xj-Boq_nQjETH-75" value="Account" style="rounded=1;whiteSpace=wrap;html=1;fillColor=#FFD966;fontColor=#000000;" parent="1" vertex="1"><mxGeometry x="365" y="1032" width="120" height="60" as="geometry"/></mxCell><mxCell id="5qQmAU-Xj-Boq_nQjETH-78" value="Allow: Admin only" style="rounded=1;whiteSpace=wrap;html=1;fillColor=#CC99FF;fontColor=#000000;" parent="1" vertex="1"><mxGeometry x="495" y="840" width="120" height="60" as="geometry"/></mxCell><mxCell id="5qQmAU-Xj-Boq_nQjETH-79" value="Allow: Admin only" style="rounded=1;whiteSpace=wrap;html=1;fillColor=#CC99FF;fontColor=#000000;" parent="1" vertex="1"><mxGeometry x="495" y="1032" width="120" height="60" as="geometry"/></mxCell><mxCell id="5qQmAU-Xj-Boq_nQjETH-80" value="Allow: anyone" style="rounded=1;whiteSpace=wrap;html=1;fillColor=#CC99FF;fontColor=#000000;" parent="1" vertex="1"><mxGeometry x="500" y="240" width="120" height="60" as="geometry"/></mxCell><mxCell id="5qQmAU-Xj-Boq_nQjETH-81" value="Allow:&amp;nbsp; Admin, Manager" style="rounded=1;whiteSpace=wrap;html=1;fillColor=#CC99FF;fontColor=#000000;" parent="1" vertex="1"><mxGeometry x="500" y="447" width="120" height="60" as="geometry"/></mxCell><mxCell id="5qQmAU-Xj-Boq_nQjETH-82" value="Allow:&amp;nbsp; Developer" style="rounded=1;whiteSpace=wrap;html=1;fillColor=#CC99FF;fontColor=#000000;" parent="1" vertex="1"><mxGeometry x="500" y="610" width="120" height="60" as="geometry"/></mxCell><mxCell id="5qQmAU-Xj-Boq_nQjETH-83" value="Apply Transaction (payment type)" style="rounded=1;whiteSpace=wrap;html=1;fillColor=#99CCFF;fontColor=#000000;" parent="1" vertex="1"><mxGeometry x="1301" y="390" width="120" height="60" as="geometry"/></mxCell><mxCell id="5qQmAU-Xj-Boq_nQjETH-84" value="System" style="rounded=1;whiteSpace=wrap;html=1;fillColor=#FFF2CC;fontColor=#000000;" parent="1" vertex="1"><mxGeometry x="1170" y="437" width="120" height="60" as="geometry"/></mxCell><mxCell id="5" style="edgeStyle=orthogonalEdgeStyle;curved=1;rounded=0;orthogonalLoop=1;jettySize=auto;html=1;exitX=1;exitY=0.5;exitDx=0;exitDy=0;fontColor=#000000;strokeWidth=2;" edge="1" parent="1" source="5qQmAU-Xj-Boq_nQjETH-86"><mxGeometry relative="1" as="geometry"><mxPoint x="1800" y="420" as="targetPoint"/></mxGeometry></mxCell><mxCell id="5qQmAU-Xj-Boq_nQjETH-86" value="Transaction.Applied" style="rounded=1;whiteSpace=wrap;html=1;fillColor=#EDA65F;fontColor=#000000;" parent="1" vertex="1"><mxGeometry x="1430" y="390" width="150" height="60" as="geometry"/></mxCell><mxCell id="5qQmAU-Xj-Boq_nQjETH-88" value="Close Billing Cycles" style="rounded=1;whiteSpace=wrap;html=1;fillColor=#99CCFF;fontColor=#000000;" parent="1" vertex="1"><mxGeometry x="1320" y="175" width="120" height="60" as="geometry"/></mxCell><mxCell id="5qQmAU-Xj-Boq_nQjETH-89" value="System" style="rounded=1;whiteSpace=wrap;html=1;fillColor=#FFF2CC;fontColor=#000000;" parent="1" vertex="1"><mxGeometry x="1190" y="215" width="120" height="60" as="geometry"/></mxCell><mxCell id="4" style="edgeStyle=orthogonalEdgeStyle;curved=1;rounded=0;orthogonalLoop=1;jettySize=auto;html=1;exitX=1;exitY=0.5;exitDx=0;exitDy=0;entryX=0;entryY=0.5;entryDx=0;entryDy=0;fontColor=#000000;strokeWidth=2;" edge="1" parent="1" source="5qQmAU-Xj-Boq_nQjETH-91" target="5qQmAU-Xj-Boq_nQjETH-116"><mxGeometry relative="1" as="geometry"/></mxCell><mxCell id="5qQmAU-Xj-Boq_nQjETH-91" value="Добавлена Цена Таска&lt;br&gt;TaskCost.Created" style="rounded=1;whiteSpace=wrap;html=1;fillColor=#EDA65F;fontColor=#000000;" parent="1" vertex="1"><mxGeometry x="1450" y="175" width="150" height="60" as="geometry"/></mxCell><mxCell id="5qQmAU-Xj-Boq_nQjETH-101" value="Apply Transaction (withdrawal type)" style="rounded=1;whiteSpace=wrap;html=1;fillColor=#99CCFF;fontColor=#000000;" parent="1" vertex="1"><mxGeometry x="1300" y="590" width="120" height="60" as="geometry"/></mxCell><mxCell id="5qQmAU-Xj-Boq_nQjETH-102" value="System" style="rounded=1;whiteSpace=wrap;html=1;fillColor=#FFF2CC;fontColor=#000000;" parent="1" vertex="1"><mxGeometry x="1170" y="630" width="120" height="60" as="geometry"/></mxCell><mxCell id="7" style="edgeStyle=orthogonalEdgeStyle;curved=1;rounded=0;orthogonalLoop=1;jettySize=auto;html=1;exitX=1;exitY=0.5;exitDx=0;exitDy=0;entryX=0;entryY=0.5;entryDx=0;entryDy=0;fontColor=#000000;strokeWidth=2;" edge="1" parent="1" source="5qQmAU-Xj-Boq_nQjETH-104" target="5qQmAU-Xj-Boq_nQjETH-116"><mxGeometry relative="1" as="geometry"/></mxCell><mxCell id="5qQmAU-Xj-Boq_nQjETH-104" value="Transaction.Applied" style="rounded=1;whiteSpace=wrap;html=1;fillColor=#EDA65F;fontColor=#000000;" parent="1" vertex="1"><mxGeometry x="1430" y="590" width="150" height="60" as="geometry"/></mxCell><mxCell id="5qQmAU-Xj-Boq_nQjETH-116" value="Account Payout" style="rounded=1;whiteSpace=wrap;html=1;fillColor=#99CCFF;fontColor=#000000;" parent="1" vertex="1"><mxGeometry x="1800" y="390" width="120" height="60" as="geometry"/></mxCell><mxCell id="5qQmAU-Xj-Boq_nQjETH-117" value="System" style="rounded=1;whiteSpace=wrap;html=1;fillColor=#FFF2CC;fontColor=#000000;" parent="1" vertex="1"><mxGeometry x="1754" y="470" width="120" height="60" as="geometry"/></mxCell><mxCell id="5qQmAU-Xj-Boq_nQjETH-119" value="Payment Completed" style="rounded=1;whiteSpace=wrap;html=1;fillColor=#EDA65F;fontColor=#000000;" parent="1" vertex="1"><mxGeometry x="1930" y="390" width="130" height="60" as="geometry"/></mxCell><mxCell id="3" value="Only for payment transaction types" style="rounded=1;whiteSpace=wrap;html=1;fillColor=#CC99FF;fontColor=#000000;" vertex="1" parent="1"><mxGeometry x="1930" y="470" width="130" height="60" as="geometry"/></mxCell></root></mxGraphModel></diagram></mxfile>